<?xml version="1.0" encoding="UTF-8"?>
<svg id="Warstwa_1" data-name="Warstwa 1" xmlns="http://www.w3.org/2000/svg" version="1.1" viewBox="0 0 425.2 425.2">
  <defs>
    <style>
      .cls-1 {
        fill: #d5112a;
      }

      .cls-1, .cls-2 {
        stroke-width: 0px;
      }

      .cls-2 {
        fill: #fff;
      }
    </style>
  </defs>
  <path class="cls-1" d="M169.38,237.66c-7.6,1.17-14.46-4.62-18.01-10.84-7.57-13.26-7.12-31.74-2.14-45.8,3.24-9.13,9.74-20.61,20.07-22.95,3.47-.75,10.59,2.45,14.25,8.6,3.3,5.6,3.46,12.91,3.11,19.22-.37,6.53-1.47,17.08-7.79,20.81-4.97,2.94-10.72-1.3-15.97-1.06-2.51.11-5.07,1.24-5.4,4.01-.17,1.37.21,2.74.7,4.03,2.49,6.57,9.22,6.54,15.11,4.84,4.59-1.32,7.44-4.26,10.44-7.76.35-.41.71-.83,1.19-1.08,2.46-1.28,4.51,2.16,4.82,4.06.92,5.52-1.94,10.76-5.52,14.74-3.81,4.23-8.91,8.21-14.72,9.17-.04,0-.09.01-.14.02M162.26,192.83c1.65.75,3.79.76,5.54.4,3.71-.76,6.9-3.66,8.51-7.04,1.17-2.46,1.58-5.61.41-8.16-.81-1.77-2.87-1.95-4.57-1.87-2.08.1-4.14.6-6.03,1.45-1.01.46-1.93,1.09-2.77,1.82-1.36,1.23-2.39,2.81-3.05,4.51-.62,1.61-1.09,3.57-.77,5.3.29,1.55,1.26,2.9,2.74,3.59"/>
  <path class="cls-1" d="M262.04,225.11c.14,11.89,3.23,17.9.65,19.71-3.17,2.16-11.25-7.75-12.37-21.33-.37-4.47-1.23-18.17-.25-31.13.02-.25.02-.51-.03-.76-.07-.34-.31-.76-.72-.72-.14.01-.27.09-.38.18-.51.42-.71,1.1-.93,1.7-.22.6-.44,1.21-.66,1.81-.42,1.17-.84,2.35-1.24,3.53-.39,1.13-.76,2.27-1.13,3.41-.35,1.1-.69,2.19-1.02,3.29-.32,1.06-.63,2.12-.93,3.19-.29,1.03-.57,2.06-.83,3.09-.26,1-.51,1.99-.75,3-.23.97-.46,1.94-.67,2.91-.21.94-.4,1.88-.59,2.83-.18.92-.36,1.83-.53,2.75-.16.89-.32,1.79-.46,2.68-.14.87-.28,1.75-.4,2.62-.12.85-.24,1.71-.36,2.57-.11.84-.21,1.68-.31,2.52-.1.83-.18,1.65-.27,2.48-.08.81-.16,1.62-.24,2.44-.07.8-.14,1.61-.21,2.41-.07.79-.13,1.59-.18,2.38-.06.79-.11,1.58-.17,2.37-.05.79-.1,1.57-.16,2.36-.05.78-.1,1.57-.15,2.35-.04.7-.09,1.4-.14,2.09-.3,4.21.21,5.82-1.18,6.96-2.85,2.33-6.93-2.64-8.34-4.57-3.5-4.78-4.56-10.12-4.94-15.9-.42-6.53-.21-13.07-.29-19.61-.07-5.47-.09-5.84-.02-11.31.03-2.37.08-4.75.16-7.12.05-1.49.34-2.99.09-4.47-.06-.36-.2-.77-.54-.92-.27-.11-.59,0-.81.18-.55.46-.83,1.3-1.12,1.94-.37.8-.71,1.62-1.03,2.45-.63,1.58-1.2,3.19-1.8,4.79-1.02,2.73-1.97,5.49-2.81,8.28-1.64,5.43-2.88,10.98-3.67,16.59-.59,4.21-.95,8.44-1.13,12.68-.07,1.61-.04,3.2-.04,4.8s.23,3.96-1.88,4.1c-2.04.14-4.15-2.18-5.34-3.54-5.12-5.85-6.12-12.9-6.6-20.34-.42-6.44-.65-12.89-.81-19.34-.31-12.81-.43-25.72.65-38.51.23-2.71,1.24-9.17,5.11-5.76,1.01.89,1.92,1.88,2.72,2.96.75,1.01,1.39,2.1,1.91,3.24.51,1.12.92,2.28,1.23,3.47.32,1.2.54,2.42.69,3.64.16,1.25.24,2.51.28,3.76.04,1.28.03,2.55,0,3.83-.03,1.28-.09,2.56-.15,3.84-.06,1.27-.12,2.53-.16,3.8-.02.55-.09,1.16.13,1.68.07.16.2.33.38.33.1,0,.19-.06.26-.13.27-.25.38-.64.5-.98,2.23-6.43,4.51-12.73,6.98-19.07,1.2-3.06,2.52-6.08,3.81-9.1,1-2.33,2.55-4.23,5.34-3.27,1.26.44,2.3,1.36,3.19,2.36,4.98,5.67,6.2,13.12,6.01,20.52-.07,2.76-.28,5.52-.45,8.27-.03.52-.11,1.04-.16,1.57-.07.75-.12,1.5-.09,2.25.03.6.05,1.31.47,1.78.09.11.22.2.36.21.33.02.55-.37.69-.61.28-.5.35-1.09.47-1.65.12-.58.25-1.17.38-1.75.25-1.19.51-2.37.76-3.56.26-1.2.52-2.41.78-3.61.26-1.21.53-2.41.8-3.62.27-1.2.55-2.39.83-3.59.28-1.18.57-2.35.86-3.52.16-.63.32-1.26.49-1.89,1.36-5.19,2.44-10.91,6.02-15.11,3.78-4.43,9.22-.21,12.17,2.96,2.91,3.13,5.65,6.93,6.5,11.2.8,4.03-.48,8.13-.91,12.12-1.15,10.67-1.27,21.5-1.38,32.23-.02,2.44-.03,4.88,0,7.32"/>
  <path class="cls-1" d="M290.53,236.27s-.06.03-.09.04c-6.58,2.75-13.02-.55-16.58-6.39-3.35-5.5-4.17-12.22-4.69-18.52-.77-9.34-.19-18.95,2.43-27.98,3.13-10.76,14-32.55,28.54-24.69,6.25,3.38,8.93,9.18,9.57,15.96,1.2,12.71-1.23,29.8-16.28,32.6-1.79.33-3.63.42-5.45.24-1.76-.18-3.55-.77-5.32-.7-5.42.21-4.8,7.73-1.76,10.48,3.21,2.91,7.78,2.72,11.59,1.21,4.43-1.75,7.49-5.41,10.79-8.68.57-.57,1.2-1.17,2-1.29,4.57-.73-.11,12.49-.74,13.91-2.78,6.18-7.77,11.17-14.02,13.81M286.49,177.47c-1.44,1.47-2.6,3.23-3.45,5.18-1.19,2.69-2.33,6.48,1.3,7.7,9.69,3.24,17.5-5.98,15.9-15.23-.58-3.36-5.22-2.26-7.43-1.56-2.48.78-4.6,2.14-6.32,3.91"/>
  <path class="cls-1" d="M140.85,222.7c-3.71-10.62-2.77-21.32-2-32.77.21-3.06.66-6.1,1.11-9.13,1.11-7.4-.63-13.38-5.47-18.91-.97-1.1-2.02-2.14-3.18-3.05-6.81-5.41-8.1-2.33-11.08,1.11-.36.41-.65.88-.93,1.35-.39.66-.75,1.34-1.09,2.02-.43.87-.84,1.75-1.22,2.64-.46,1.06-.9,2.14-1.32,3.22-.48,1.24-.94,2.49-1.39,3.75-.49,1.4-.96,2.81-1.42,4.22-.49,1.54-.96,3.1-1.41,4.65-.18.63-.36,1.27-.54,1.9-.17.6-.28,1.27-.66,1.78-.09.13-.24.23-.4.21-.17-.02-.28-.18-.35-.33-.3-.59-.33-1.26-.33-1.91,0-.74.04-1.48.06-2.23.04-1.16.1-2.32.18-3.47.16-2.2.49-4.39.2-6.6-.28-2.08-1.3-4.07-2.37-5.85-1.33-2.2-3.01-4.25-5.1-5.79-1.21-.89-2.86-1.76-4.39-1.17-1.62.62-2.42,2.39-3.15,3.83-3.03,5.98-5.75,12.17-8.22,18.4-.27.67-.55,1.34-.82,2-.25.62-.47,1.24-.72,1.86-.12.31-.26.62-.4.93-.1.21-.21.57-.42.69-.16.09-.37.02-.5-.11-.12-.14-.18-.32-.22-.5-.21-.93-.21-1.94-.14-2.88.06-.83.2-1.66.34-2.48.04-.27.09-.55.13-.82.13-.85.24-1.7.33-2.56.17-1.63.05-4.28-.37-5.86-.77-2.91-2.18-5.62-3.78-8.15-1.06-1.67-2.89-4.71-5.15-4.87-2.47-.17-2.84,4.04-2.99,5.65-1.49,14.14-.69,32.2.67,44.92.49,4.52,2.67,8.91,5.4,12.49,1.1,1.45,2.35,2.85,3.84,3.92.76.54,1.99,1.36,2.97.94,1.26-.55.87-2.42.86-3.45-.07-6.66.75-13.34,2.4-19.79.14-.56.3-1.12.47-1.68.19-.63.38-1.26.59-1.89.17-.5.63-1.26.63-1.77,0-.23.21-.57.3-.78.1-.27.21-.54.32-.81.22-.54.45-1.07.69-1.61.48-1.06,1-2.11,1.56-3.13,1.1-1.99,2.35-4.01,3.87-5.71.37-.41,1.01-1.26,1.67-1.11.26.06.43.3.52.55.38,1.09.24,2.26.23,3.39-.01.75-.02,1.51-.03,2.26-.02,1.71-.04,3.42-.05,5.12-.01,1.8-.02,3.6-.02,5.41,0,1.69,0,3.39.02,5.08.01,1.38.04,2.76.09,4.14.03.86.06,1.73.17,2.59,1.16,8.03,9.1,18.04,12.57,16.1,1.38-.8.96-2.38,1.2-6.25.15-2.38.36-4.75.64-7.11.25-2.11.56-4.22.94-6.31.34-1.86.73-3.71,1.18-5.55.4-1.62.85-3.23,1.35-4.82.44-1.39.92-2.78,1.45-4.14.46-1.18.96-2.35,1.49-3.49.46-.98.95-1.94,1.47-2.88.44-.78.89-1.56,1.38-2.31.41-.64.84-1.26,1.29-1.87.39-.53.76-1.12,1.34-1.47.14-.08.3-.15.45-.12.4.08.52.6.58.94.22,1.24.11,2.51,0,3.76-.11,1.23-.29,2.46-.41,3.69-.06.6-.11,1.2-.12,1.81-.31,11.15,1.61,22.21,5.77,32.53.69,1.72,2.06,3.11,3.79,3.76,1.57.59,3.28.88,5.07,1.04,1.65.14,2.85-1.56,2.19-3.08-.58-1.35-1.12-2.71-1.59-4.08"/>
  <path class="cls-1" d="M311.48,234.31c-3.88,2.43-6.65,6.39-9.51,9.87-5.65,6.89-11.85,13.55-18.97,18.95-7.54,5.72-16.27,9.59-25.09,12.34-19.91,6.21-40.96,7.97-61.14,1.74-11.72-3.62-22.68-9.67-32.05-17.58-4.71-3.98-8.63-8.49-12.69-13.1-2.09-2.38-4.55-5.06-7.49-6.38-4.75-2.14-6.6,1.46-5.79,5.88,2.21,12.13,8.6,22.79,16.6,32.01,7.6,8.77,17.04,15.95,27.48,21.02,26.74,13,59.79,13.76,86.75.93,10.34-4.92,19.73-11.78,27.78-19.91,5.98-6.03,11.8-12.81,15.67-20.56,3.25-6.49,6.99-16.63,4.22-23.83-1.18-3.06-3.39-2.88-5.77-1.39"/>
  <path class="cls-1" d="M354.27,160.66c-.62-2.39-3.8-2.31-5.75-2.4-2.69-.12-5.39.02-8.05.45-2.15.35-5.14,1.81-7.15.42-.47-.32-.65-.92-.81-1.47-2.31-8.26-5.69-16.21-10.04-23.6-4.27-7.25-9.84-14.25-17.63-17.42-1.91-.78-4.45-1.15-5.72.47-1.24,1.59-.36,3.89.57,5.67,6.98,13.44,14.47,26.87,17.87,41.63,3.86,16.74,2.22,34.37-2.22,50.96-.56,2.09-1.08,4.57.36,6.19,1.71,1.93,4.92,1.16,7.05-.28,4.2-2.82,6.87-7.5,8.25-12.37,1.38-4.87,1.6-9.98,1.81-15.03.13-3.18.27-6.36.4-9.54.09-2.2-.07-4.58.64-6.69.65-1.93,2.21-3.46,3.88-4.55,3.86-2.52,8.16-4.49,12.17-6.8,1.74-1,3.71-2.31,4.31-4.35.15-.5.16-.93.06-1.3"/>
  <polygon class="cls-2" points="77.41 130.97 75.3 133.05 75.3 136.92 70.9 136.92 70.9 115.99 75.3 115.99 75.3 127.84 81.73 121.75 86.97 121.75 80.66 128.18 87.54 136.92 82.21 136.92 77.41 130.97"/>
  <path class="cls-2" d="M130.9,130.57h-11.48c.42,1.89,2.03,3.05,4.34,3.05,1.61,0,2.76-.48,3.81-1.47l2.34,2.54c-1.41,1.61-3.52,2.45-6.26,2.45-5.24,0-8.66-3.3-8.66-7.81s3.47-7.81,8.09-7.81,7.9,2.99,7.9,7.87c0,.34-.06.82-.08,1.18M119.36,128.01h7.47c-.31-1.92-1.75-3.16-3.72-3.16s-3.44,1.21-3.75,3.16"/>
  <path class="cls-2" d="M177.7,129.33c0,4.77-3.3,7.81-7.56,7.81-2.03,0-3.67-.65-4.76-1.97v1.75h-4.2v-20.92h4.4v7.36c1.13-1.24,2.68-1.83,4.57-1.83,4.26,0,7.56,3.05,7.56,7.81M173.24,129.33c0-2.62-1.66-4.2-3.86-4.2s-3.86,1.58-3.86,4.2,1.66,4.2,3.86,4.2,3.86-1.58,3.86-4.2"/>
  <path class="cls-2" d="M221.06,128.26v8.66h-4.12v-1.89c-.82,1.38-2.4,2.11-4.62,2.11-3.55,0-5.67-1.97-5.67-4.6s1.89-4.54,6.51-4.54h3.5c0-1.89-1.13-2.99-3.5-2.99-1.61,0-3.27.54-4.37,1.41l-1.58-3.07c1.66-1.18,4.12-1.83,6.54-1.83,4.62,0,7.3,2.14,7.3,6.74M216.66,132.12v-1.55h-3.02c-2.06,0-2.71.76-2.71,1.78,0,1.1.93,1.83,2.48,1.83,1.47,0,2.74-.68,3.24-2.06"/>
  <path class="cls-2" d="M268.82,129.33c0,4.77-3.3,7.81-7.56,7.81-2.03,0-3.67-.65-4.76-1.97v1.75h-4.2v-20.92h4.4v7.36c1.13-1.24,2.68-1.83,4.57-1.83,4.26,0,7.56,3.05,7.56,7.81M264.37,129.33c0-2.62-1.66-4.2-3.86-4.2s-3.86,1.58-3.86,4.2,1.66,4.2,3.86,4.2,3.86-1.58,3.86-4.2"/>
</svg>